<svg xmlns="http://www.w3.org/2000/svg" fill="none" viewBox="0 0 91 100"><path fill="#EEF2F4" d="M11.606 71.823H7.25v-2.506c0-.503-.274-.755-.823-.755H5.178c-.548 0-.822.252-.822.755v11.774c0 .282.06.483.183.604.122.1.335.15.64.15h1.248c.305 0 .518-.05.64-.15.122-.121.183-.322.183-.604v-3.744H5.727V74.48h5.879v7.004c0 2.214-1.28 3.321-3.838 3.321h-3.93C1.28 84.804 0 83.697 0 81.484v-12.56c0-2.213 1.28-3.32 3.838-3.32h3.93c2.558 0 3.838 1.107 3.838 3.32v2.899ZM25.771 68.925v12.528c0 2.234-1.289 3.351-3.868 3.351h-4.082c-.589 0-1.117-.06-1.584-.181l-.396.785h-2.01l.853-1.69c-.488-.504-.731-1.259-.731-2.265V68.925c0-2.214 1.29-3.321 3.868-3.321h4.082c.71 0 1.29.07 1.736.211l.396-.815h2.01l-.883 1.781c.406.544.61 1.258.61 2.144Zm-7.676.362v7.577L21.63 69.8v-.513c0-.503-.274-.755-.823-.755h-1.888c-.549 0-.823.252-.823.755ZM21.63 81.12v-7.276l-3.534 7.065v.211c0 .503.274.755.823.755h1.888c.549 0 .823-.252.823-.755ZM32.737 77.619v7.185h-4.325v-19.2h7.98c2.56 0 3.839 1.107 3.839 3.32v5.374c0 1.771-.813 2.838-2.437 3.2l3.411 7.306h-4.66l-3.046-7.185h-.762Zm0-8.845v5.796h2.346c.284 0 .487-.05.609-.151.122-.12.183-.312.183-.574v-4.317c0-.503-.264-.754-.792-.754h-2.346ZM42.904 65.604h8.072c2.579 0 3.868 1.107 3.868 3.32v12.53c0 2.233-1.29 3.35-3.868 3.35h-8.072v-19.2Zm7.584 15.487V69.317c0-.503-.274-.755-.822-.755H47.26v13.284h2.406c.548 0 .822-.252.822-.755ZM57.566 65.604h4.325v19.2h-4.325v-19.2ZM72.835 65.604h3.99v19.2h-3.898l-4.234-11.502v11.502h-3.96v-19.2h3.93l4.172 11.472V65.604ZM91 71.823h-4.356v-2.506c0-.503-.274-.755-.822-.755h-1.25c-.547 0-.822.252-.822.755v11.774c0 .282.061.483.183.604.122.1.335.15.64.15h1.249c.304 0 .517-.05.64-.15.121-.121.182-.322.182-.604v-3.744h-1.523V74.48H91v7.004c0 2.214-1.28 3.321-3.838 3.321h-3.93c-2.558 0-3.838-1.107-3.838-3.32v-12.56c0-2.213 1.28-3.32 3.838-3.32h3.93c2.559 0 3.838 1.107 3.838 3.32v2.899Z"/><path fill="#61A8E0" d="M9.94 90.495V91.6H8.337v8.384H6.963V91.6H5.36v-1.106h4.58ZM12.177 96.15v3.835h-1.374v-9.49h3.13c.946 0 1.419.444 1.419 1.334V94.8c0 .768-.341 1.208-1.023 1.319l1.511 3.866h-1.48l-1.435-3.836h-.748Zm0-4.549v3.457h1.343c.183 0 .305-.026.367-.076.06-.06.091-.182.091-.364v-2.577c0-.182-.03-.298-.091-.349-.062-.06-.184-.09-.367-.09h-1.343ZM21.786 98.878h2.762v1.107h-4.12v-2.259h-2l-.81 2.259H16.23l3.542-9.49h4.67V91.6h-2.655v2.926h2.198v1.107h-2.198v3.244Zm-1.359-2.243v-4.442l-1.603 4.442h1.603ZM29.099 90.495h1.267v9.49h-1.39l-2.014-6.853v6.853h-1.267v-9.49h1.45l1.954 6.655v-6.655ZM32.078 90.495h1.374v9.49h-1.374v-9.49ZM38.565 90.495h1.267v9.49h-1.39l-2.014-6.853v6.853H35.16v-9.49h1.45l1.954 6.655v-6.655ZM45.818 93.269h-1.39V92.01c0-.182-.03-.298-.09-.35-.062-.06-.184-.09-.367-.09h-.779c-.183 0-.305.03-.366.09-.061.052-.092.168-.092.35v6.473c0 .182.03.303.092.364.06.05.183.076.366.076h.779c.183 0 .305-.026.366-.076.061-.06.092-.182.092-.364v-2.32h-.764v-1.06h2.153v3.547c0 .9-.474 1.349-1.42 1.349h-1.633c-.947 0-1.42-.45-1.42-1.35V91.83c0-.89.473-1.334 1.42-1.334h1.633c.946 0 1.42.444 1.42 1.334v1.44ZM49.998 98.439v-2.32c0-.182-.03-.298-.092-.349-.05-.06-.168-.09-.351-.09h-1.13c-.926 0-1.389-.45-1.389-1.35V91.83c0-.89.474-1.334 1.42-1.334h1.496c.946 0 1.42.444 1.42 1.334v1.394h-1.39v-1.182c0-.182-.03-.298-.091-.349-.061-.06-.183-.09-.366-.09h-.642c-.183 0-.305.03-.366.09-.061.05-.092.167-.092.349v2.107c0 .182.031.303.092.364.061.05.183.076.366.076h1.115c.936 0 1.404.445 1.404 1.334v2.729c0 .89-.478 1.334-1.435 1.334h-1.48c-.947 0-1.42-.445-1.42-1.334v-1.395h1.389v1.183c0 .181.03.303.092.363.06.05.183.076.366.076h.641c.183 0 .3-.025.351-.076.061-.06.092-.182.092-.364ZM57.162 93.466h-1.405v-1.455c0-.182-.03-.298-.091-.35-.051-.06-.168-.09-.351-.09h-.779c-.183 0-.305.03-.366.09-.061.052-.092.168-.092.35v6.473c0 .182.03.303.092.364.061.05.183.076.366.076h.779c.183 0 .3-.026.35-.076.062-.06.092-.182.092-.364v-1.44h1.405v1.607c0 .9-.478 1.349-1.435 1.349h-1.618c-.947 0-1.42-.45-1.42-1.35V91.83c0-.89.474-1.334 1.42-1.334h1.618c.957 0 1.435.444 1.435 1.334v1.637ZM59.909 98.878h2.763v1.107H58.52v-9.49h4.045V91.6h-2.656v2.926h2.198v1.107h-2.198v3.244ZM67.156 90.495h1.267v9.49h-1.39l-2.014-6.853v6.853h-1.267v-9.49h1.45l1.954 6.655v-6.655ZM73.875 90.495V91.6h-1.603v8.384h-1.374V91.6h-1.603v-1.106h4.58ZM76.127 98.878h2.763v1.107h-4.152v-9.49h4.045V91.6h-2.656v2.926h2.198v1.107h-2.198v3.244ZM81.344 96.15v3.835H79.97v-9.49h3.13c.946 0 1.42.444 1.42 1.334V94.8c0 .768-.342 1.208-1.023 1.319l1.51 3.866h-1.48l-1.435-3.836h-.748Zm0-4.549v3.457h1.344c.183 0 .305-.026.366-.076.06-.06.091-.182.091-.364v-2.577c0-.182-.03-.298-.091-.349-.061-.06-.183-.09-.367-.09h-1.343Z"/><path fill="#EEF2F4" fill-rule="evenodd" d="M33.84 10.224h2.398L36.3 0h-2.523l.062 10.224ZM52.182.154c-.031.084-.043 2.384-.026 5.111l.031 4.959h2.399L54.65 0h-1.205c-.853 0-1.221.045-1.262.153Zm-14.686 9.03h2.159V6.488l4.553-1.188 4.553 1.188.068 2.633 1.05.035c.667.023 1.05-.01 1.051-.092 0-.07.002-1.835.002-3.922 0-2.088-.001-3.851-.002-3.919-.001-.072-.443-.122-1.081-.122h-1.08v2.816L44.213 2.73l-4.557 1.188V1.102h-2.159v8.081ZM30.595 2.36c-.032.086-.044 1.394-.026 2.908L30.6 8.02l2.099.07V2.205h-1.023c-.718 0-1.04.046-1.082.156Zm25.191 5.66h2.04l.063-5.816h-2.167l.064 5.816Z" clip-rule="evenodd"/><path fill="#EEF2F4" d="M40.92 28.862c.458-7.7 1.55-15.365 3.147-22.091l.218-.919.095 1.102c.55 6.427 1.121 9.901 2.306 14.02.586 2.039.846 2.794 1.414 4.115l.444 1.034-.491.762c-2.357 3.658-4.379 8.968-5.278 13.863-.521 2.836-.735 4.834-.954 8.938-.077 1.425-.095 1.522-.178.919-.155-1.13-.585-6.178-.72-8.449-.166-2.81-.168-10.516-.003-13.294Z"/><path fill="#61A8E0" d="M60.22 35.912c1.945-.95 3.397-1.47 5.085-1.822 1.524-.318 1.873-.326 1.794-.046-.032.118-.096.6-.141 1.072-.181 1.886-.902 4.789-1.664 6.7-2.242 5.624-6.091 9.682-11.27 11.88-1.397.593-4.402 1.41-4.402 1.197l-3.102.29.07-1.218c.25-4.326 2.358-8.698 6.05-12.542 2.225-2.316 4.652-4.08 7.58-5.51Z"/><path fill="#EEF2F4" d="M43.583 53.435c.78-2.321 1.573-3.809 3.217-7.061 1.358-2.688 2.637-4.425 4.957-6.728 3.737-3.712 8.445-6.507 13.609-8.08.741-.225 1.265-.437 1.164-.471-.101-.034-1.01-.096-2.022-.138-3.381-.14-7.616-.582-10.031-1.049-.774-.149-1.284-.194-1.415-.123-.417.223-3.53 3.54-4.44 4.73-3.25 4.25-5.274 9.18-5.853 14.253-.13 1.139-.37 2.609-.074 6.766l.888-2.099ZM50.248 20.644c.273-1.953 1.607-3.521 3.6-4.232.466-.166.897-.21 1.791-.182 1.073.034 1.26.078 2.094.49 1.122.554 1.923 1.371 2.464 2.513.366.772.39.906.387 2.17-.003 1.116-.052 1.468-.287 2.059-.388.971-1.518 2.167-2.51 2.655-3.807 1.873-8.129-1.264-7.54-5.473Z"/><path fill="#A3D0F4" d="M30.757 18.035c2.461-2.449 5.207-4.062 8.515-5.004.975-.277 1.16-.303 1.16-.157 0 .135-.499 2.364-.964 4.304-.894 3.729-1.76 8.729-2.166 12.49-.275 2.551-.372 8.256-.183 10.796.202 2.72.465 4.43 1.492 9.683.484 2.475.852 4.528.818 4.562-.144.144-1.787-.611-2.771-1.274-6.388-4.3-9.916-9.198-11.257-15.626-.414-1.981-.533-6.319-.236-8.579.607-4.623 2.208-7.827 5.592-11.195Z"/></svg>