<svg xmlns="http://www.w3.org/2000/svg" fill="none" viewBox="0 0 127 127"><path fill="currentColor" fill-rule="evenodd" d="M59.764.062c-10.235.984-16.488 2.61-23.813 6.194-11.184 5.472-19.213 12.56-26.096 23.043-2.041 3.109-5.461 10.222-6.625 13.78-3.692 11.294-4.24 23.812-1.537 35.13 2.657 11.122 8.684 21.87 16.798 29.953 17.588 17.522 43.913 23.239 67.07 14.566 19.715-7.383 35.123-24.91 39.538-44.977 2.99-13.584 1.835-26.662-3.491-39.523-1.082-2.612-2.68-5.534-5.042-9.22C106.804 13.77 90.447 3.227 72.663.706c-3.509-.497-10.69-.856-12.9-.644Zm12.654 8.57c8.121 1.317 14.46 3.876 22.403 9.045 3.999 2.602 11.454 9.883 13.796 13.473 5.129 7.863 7.747 14.187 9.433 22.788.821 4.182.82 14.664 0 18.873-3.464 17.78-13.288 31.211-29.097 39.781-4.647 2.519-10.714 4.542-16.653 5.551-4.953.842-13.746.771-18.714-.151-12.811-2.376-25.116-9.433-32.645-18.725C12.279 88.58 7.928 76.575 7.928 63.364c0-11.206 3.204-21.757 9.44-31.089C26.456 18.677 41.16 9.921 57.945 8.115c3.324-.359 10.696-.095 14.473.517ZM46.84 36.251c-1.583.783-2.586 2.026-3.085 3.824-.5 1.8-.501 44.11-.002 46.437.647 3.017 3.708 5.01 6.875 4.475.945-.16 6.682-3.487 19.306-11.196 9.88-6.034 18.38-11.3 18.89-11.702 2.859-2.254 2.9-7.049.08-9.175-1.92-1.448-36.41-22.444-37.575-22.874-1.658-.613-2.948-.553-4.489.21Zm34.52 26.946c-.317.277-29.255 18.13-29.605 18.265-.344.132-.426-3.38-.426-18.193V44.913l15.066 9.099c8.285 5.004 15.02 9.138 14.965 9.185Z" clip-rule="evenodd"/></svg>