<svg xmlns="http://www.w3.org/2000/svg" fill="none" viewBox="0 0 42 47"><path fill="currentColor" fill-rule="evenodd" d="M19.465.851c-2.508 1.739-.951 5.711 2.238 5.711 1.548 0 3.165-1.739 3.165-3.403C24.868 1.906 22.943 0 21.676 0c-.54 0-1.535.383-2.21.851ZM6.08 6.995c0 1.479 4.486 5.583 6.1 5.58.748-.001 2.197-.506 3.219-1.123 1.022-.617 1.967-1.014 2.1-.882.133.131.071 1.51-.137 3.062-.363 2.705-.526 2.927-3.907 5.314-1.94 1.37-3.74 2.897-3.999 3.393-.692 1.324-1.308 6.098-.785 6.089 1.918-.032 2.937-.813 3.256-2.494.191-1.009.633-2.046.98-2.305 1.15-.854 7.595-3.396 8.612-3.396.548 0 2.775.777 4.948 1.727 3.165 1.383 4.01 2.009 4.25 3.144.483 2.3 1.086 3.048 2.607 3.228 1.365.162 1.42.07 1.141-1.914-.515-3.663-1.295-4.868-4.682-7.232-3.497-2.44-4.36-3.822-4.36-6.972v-1.932l1.965 1.147c1.081.632 2.588 1.148 3.348 1.148 1.856 0 6.613-4.397 6.123-5.66-.538-1.387-2.221-1.074-3.976.739-.874.902-1.881 1.64-2.239 1.64-.357 0-1.575-.728-2.706-1.618-2.051-1.613-2.062-1.614-3.22-.547-1.512 1.394-4.829 1.41-6.548.033-1.288-1.031-1.309-1.028-3.319.547-1.112.872-2.2 1.585-2.416 1.585-.216 0-1.335-.738-2.487-1.64-2.365-1.854-3.868-2.11-3.868-.66Zm2.464 23.07c-8.755.92-10.746 2.169-5.396 3.384 2.24.508 7.627.728 17.853.728 10.226 0 15.613-.22 17.853-.728 7.38-1.676.788-3.286-14.814-3.617-6.079-.129-13.052-.024-15.496.233ZM0 35.175c0 1.012.762 1.273 5.803 1.987 5.02.711 25.483.72 30.118.013C41.38 36.343 42 36.141 42 35.201c0-.675-.339-.784-1.52-.49-7.271 1.813-31.819 1.772-39.218-.066C.356 34.42 0 34.57 0 35.175Zm2.21 7.495c0 2.961.197 3.92.853 4.17 1.285.487 1.44.069 1.542-4.142.088-3.68.03-3.874-1.151-3.873-1.172 0-1.243.223-1.243 3.845Zm35.369.296c0 3.65.115 4.12.967 3.96.796-.15.996-.883 1.13-4.142.15-3.675.08-3.959-.968-3.959-1.038 0-1.13.335-1.13 4.141Zm-29.29-1.093c0 2.087.16 2.47.968 2.32.705-.133 1.013-.81 1.136-2.502.15-2.03.03-2.319-.967-2.319-.981 0-1.137.341-1.137 2.5Zm24.316 0c0 2.087.16 2.47.967 2.32.706-.133 1.013-.81 1.137-2.502.15-2.03.029-2.319-.967-2.319-.981 0-1.137.341-1.137 2.5Z" clip-rule="evenodd"/></svg>