<svg xmlns="http://www.w3.org/2000/svg"  fill="none" viewBox="0 0 43 46"><path fill="currentColor" fill-rule="evenodd" d="M19.402.176c-.937.36-1.514.887-1.944 1.77-.542 1.117-.484 2.523.143 3.477 1.172 1.784 3.706 2.082 5.349.63 1.14-1.01 1.364-3.255.453-4.56C22.56.285 20.705-.326 19.402.176Zm-3.735 6.749c-.31.111-.803.351-1.095.533-.686.427-2.318 2.094-3.036 3.1-1.454 2.04-3.22 6.466-3.23 8.094-.006 1.044.436 2.01 1.174 2.565.757.568 3.227 1.855 5.347 2.784 1.03.452 1.95.9 2.045.998.094.097.258.777.363 1.512.488 3.392.824 4.771 1.273 5.224.675.679 1.89.542 2.42-.273.252-.385.243-.633-.159-4.674-.248-2.498-.514-4.442-.64-4.688-.135-.262-1.303-1.137-3.12-2.337l-2.905-1.919.251-.387c.282-.433 2.86-3.98 3.402-4.679l.35-.451 1.933.805c1.063.443 2.144.805 2.402.805.259 0 1.636-.219 3.061-.486 2.257-.424 2.639-.54 2.958-.892.292-.322.35-.52.279-.958-.05-.304-.234-.698-.41-.876-.295-.297-.56-.33-3.166-.403l-2.845-.078-2.107-1.531c-2.917-2.12-3.255-2.253-4.544-1.788Zm10.554 8.285c-.343.077-.772.175-.952.217-.244.057-.718.844-1.833 3.045-1.343 2.65-1.488 3.017-1.354 3.421.084.25.207 1.09.276 1.867l.124 1.415 1.87-3.651c1.028-2.008 1.905-3.653 1.95-3.654.044-.002.413.626.821 1.395l.742 1.398-.822.848c-3.074 3.17-3.084 8.086-.023 11.241 3.05 3.144 8.145 3.144 11.204 0 1.553-1.597 2.27-3.364 2.273-5.612.006-3.538-2.256-6.627-5.596-7.645-1.05-.32-3.374-.356-4.383-.068-.383.11-.718.14-.744.066-.026-.073-.576-1.106-1.223-2.294-1.25-2.298-1.19-2.246-2.33-1.99Zm7.64 6.352c1.539.255 3.137 1.539 3.923 3.15.406.834.456 1.096.455 2.428 0 1.22-.064 1.634-.354 2.266-1.706 3.728-6.358 4.653-9.228 1.835-2.143-2.102-2.308-5.604-.366-7.717l.74-.804.542 1.07c.298.59.719 1.389.934 1.778.275.497.392.949.394 1.522.002.678.077.893.445 1.28.797.837 1.988.738 2.747-.23.51-.652.38-1.69-.289-2.292-.267-.24-.573-.438-.679-.438-.106-.001-.635-.848-1.176-1.881-.959-1.835-.974-1.882-.624-1.96 1.033-.226 1.209-.227 2.536-.007ZM10.2 24.617l-.258.618-1.381-.09c-1.705-.11-2.825.11-4.268.837-4.049 2.04-5.512 7.181-3.182 11.184 2.204 3.787 7.37 4.99 11.076 2.578 2.574-1.676 4.009-4.904 3.517-7.913-.333-2.04-1.495-4.022-2.992-5.105l-.766-.554.233-.562c.128-.31.214-.581.19-.605-.047-.047-1.852-1.01-1.889-1.007-.012 0-.139.28-.28.62ZM8.886 27.44c.118.191-1.443 3.848-1.677 3.93-.1.036-.377.26-.614.5-.348.35-.431.575-.431 1.168 0 .627.078.814.53 1.27.81.815 1.883.709 2.748-.272.14-.16 1.037-.453 2.236-.732l2.002-.466-.1.805c-.142 1.159-1.046 2.949-1.84 3.646a8.058 8.058 0 0 1-1.518.991c-.74.356-1.063.413-2.341.413-1.28 0-1.604-.058-2.372-.42-2.798-1.32-4.055-4.727-2.8-7.583.615-1.4 2.076-2.657 3.69-3.172.73-.233 2.36-.284 2.487-.078Zm2.752 1.305c.44.328 1.503 1.808 1.375 1.914-.088.073-3.26.853-3.26.802 0-.024.214-.549.475-1.166.26-.616.54-1.296.62-1.509.179-.474.206-.475.79-.04Zm31.022 6.019c-.043.044-.634.249-1.313.456-.68.207-3.352 1.056-5.938 1.886l-4.702 1.508h-8.354l-2.286 1.407-2.286 1.408-7.158 1.104c-3.937.608-7.172 1.124-7.187 1.147l-.758 1.084c-.4.573-.728 1.085-.728 1.14 0 .053 9.236.097 20.524.097H43v-5.658c0-5.054-.05-5.87-.339-5.579Z" clip-rule="evenodd"/></svg>