<svg xmlns="http://www.w3.org/2000/svg" fill="none" viewBox="0 0 31 36"><path fill="currentColor" fill-rule="evenodd" d="M5.61.054c-.306.1-.708.51-.807.824a4.97 4.97 0 0 0-.123.758c-.027.29-.1 1.024-.162 1.63a1092.745 1092.745 0 0 1-.592 5.859c-.041.392-.076.95-.078 1.241-.002.459.01.553.095.712.136.257.403.506.67.626.327.147 1.008.177 1.339.058.313-.112.662-.461.772-.771.054-.154.152-.952.306-2.482l.457-4.53c.278-2.75.28-2.832.113-3.182a1.393 1.393 0 0 0-.735-.69c-.32-.116-.977-.144-1.255-.053Zm-2.65.961c-.256.084-.558.4-.621.65-.025.098-.088.622-.14 1.165-.052.544-.134 1.36-.181 1.815-.048.455-.1.983-.116 1.172-.017.19-.038.407-.047.483-.125 1.028-.294 3.006-.27 3.17.119.801 1.27 1.113 1.839.498.185-.2.247-.434.327-1.233.086-.853.433-4.36.577-5.84.113-1.156.103-1.248-.17-1.573a1.105 1.105 0 0 0-.327-.264 1.43 1.43 0 0 0-.871-.043Zm19.999.822a1.396 1.396 0 0 0-.626.44c-.277.357-.224-.013-.721 5.034a516.618 516.618 0 0 1-.272 2.71c-.186 1.69-.23 2.295-.181 2.53.066.324.28.639.56.827.275.186.537.25 1.038.257.343.005.4-.007.655-.146.504-.273.658-.56.747-1.387.07-.654.226-2.17.296-2.885.057-.591.33-3.305.471-4.68.063-.617.115-1.248.114-1.402 0-.481-.29-.953-.72-1.177-.32-.166-1.057-.232-1.361-.121Zm-9.16.67c-.598.13-.834.257-1.19.649-.367.403-.766.938-1.293 1.735l-.385.581-.292-.01a43.32 43.32 0 0 1-1.58-.145 28.828 28.828 0 0 0-1.3-.121c-.024.023-.2 1.82-.181 1.84.01.01.474.062 1.032.115.557.053 1.049.11 1.092.128.07.028.065.052-.052.238A64.77 64.77 0 0 0 8.37 9.654c-.463.845-1.657 3.315-1.657 3.428 0 .023-.024.041-.053.041-.029 0-.041.012-.027.026.014.015-.055.206-.154.426-.1.219-.208.46-.242.536-.393.878-1.54 3.745-1.896 4.738a35.328 35.328 0 0 0-.972 3.169c-.98 3.885-1.395 7.349-1.081 9.023.051.275.233.71.353.846.17.193.644.458 1.604.899.317.145 1.584.624 2.265.855 2.179.741 4.676 1.347 6.817 1.653 1.19.171 1.778.216 3.137.239 2.283.04 3.096-.09 5.305-.837 2.457-.832 3.541-1.079 4.732-1.079.934 0 1.558.15 2.34.562.58.306.944.591 1.607 1.261L31 36V21.004l-.519-.012c-.423-.01-.653-.045-1.252-.193-1.146-.284-1.467-.33-2.452-.357-1.023-.028-1.924.036-2.396.17-.739.21-1.154.438-2.647 1.457-.493.337-.915.612-.939.612-.11 0-.019.13.194.276.361.247.828.717 1.051 1.06.111.169.202.323.202.34 0 .02-.095-.073-.21-.204-.365-.412-1.071-.843-1.8-1.096-.706-.245-2.539-.34-3.475-.18-1.486.256-2.62.79-3.68 1.734-.383.342-.459.379-.789.382-.489.005-1.102-.379-1.306-.817-.037-.079-.091-.335-.12-.57-.059-.458-.014-1.64.12-3.2.038-.43.086-1.34.107-2.021.029-.92.063-1.372.132-1.748.086-.47.407-1.807.562-2.342l.193-.666c.116-.406.663-2.061.941-2.85.166-.468.218-.539.442-.597.883-.228 1.527-.47 1.995-.748l.222-.132.545.056c.9.092 1.436-.062 1.8-.518.172-.215.348-.53.348-.621 0-.032.015-.058.034-.057.058.002.858.083 1.772.18.484.052.913.094.955.094.082 0 .077.028.2-1.117.04-.375.062-.692.049-.705-.02-.021-1.066-.148-1.852-.224-.299-.029-.305-.032-.203-.101.183-.124.45-.398.52-.534a.67.67 0 0 0-.053-.712c-.637-.867-.957-1.19-1.53-1.542-.249-.152-.387-.193-1.257-.374-.294-.061-.842-.298-1.005-.435a1.922 1.922 0 0 0-.294-.135c-.354-.14-1.269-.166-1.805-.05Zm12.079.862c-.123.032-.298.149-.426.285-.198.21-.266.454-.34 1.221l-.228 2.298a868.811 868.811 0 0 0-.271 2.71c-.108.953-.165 1.696-.145 1.896.052.513.424.837 1.005.875.408.027.669-.084.877-.372.178-.247.196-.332.31-1.48.053-.53.156-1.554.23-2.274.19-1.86.364-3.643.395-4.03.023-.297.013-.356-.095-.574-.198-.4-.512-.587-.975-.58a2.097 2.097 0 0 0-.337.025ZM.446 4.13C.175 4.416-.051 5.315.01 5.862c.041.366.157.72.272.83.112.108.705.19.882.124.19-.071.411-.473.52-.942.102-.445.068-1.244-.066-1.529-.13-.275-.228-.328-.66-.354L.596 3.97l-.15.158ZM27.6 6.874c-.506.404-.665 2.1-.245 2.597.084.1.16.127.454.164.312.04.37.035.496-.04.167-.1.358-.458.459-.86.088-.354.09-1.13.001-1.43-.104-.359-.245-.462-.678-.5-.33-.029-.373-.023-.487.069Z" clip-rule="evenodd"/></svg>