<svg xmlns="http://www.w3.org/2000/svg" width="43" height="36" fill="none" viewBox="0 0 43 36"><path fill="currentColor" fill-rule="evenodd" d="M31.439.05c-.976.146-1.568.463-2.324 1.242-.8.826-1.147 1.695-1.141 2.867.008 1.651.84 3.026 2.27 3.75 1.072.544 2.789.565 3.775.046.968-.509 1.822-1.527 2.12-2.528.317-1.062.322-1.519.024-2.504-.6-1.984-2.585-3.191-4.724-2.872ZM22.79 4.86c-.975.423-9.87 6.045-10.499 6.636-1.528 1.436-1.97 3.586-1.056 5.133.372.63.886 1.057 2.882 2.39 1.336.893 3.004 1.976 3.706 2.408.702.431 1.277.834 1.277.895 0 .06-1.299 1.455-2.886 3.097-1.587 1.642-2.958 3.176-3.047 3.41-.806 2.11 1.125 4.083 3.268 3.339.337-.117 2.053-1.771 4.968-4.788 4.742-4.907 4.926-5.16 4.684-6.447-.174-.924-.736-1.42-3.24-2.863a282.245 282.245 0 0 1-2.389-1.383c-.064-.05 2.935-1.89 3.08-1.89.07 0 .093.18.05.402-.118.62.542 1.82 1.16 2.11.29.136 2.437.556 4.77.933l4.241.687.603-.311c1.543-.798 1.544-3.102.002-3.736-.287-.118-1.782-.418-3.322-.666-1.54-.249-2.852-.496-2.915-.551-.062-.054-.002-1.022.134-2.15.136-1.127.216-2.35.178-2.718-.07-.686-.925-2.202-1.739-3.084-.905-.981-2.707-1.374-3.91-.852ZM6.27 19.485C3.29 20.282.8 22.91.174 25.917c-.992 4.772 2.359 9.424 7.218 10.023 2.112.26 4.462-.344 6.063-1.56.629-.478.671-.658.192-.81-.191-.06-.628-.361-.97-.669l-.622-.56-.8.4c-3.155 1.576-6.628.443-8.165-2.664-.322-.65-.378-1.022-.378-2.487 0-1.573.04-1.799.464-2.601 1.55-2.931 5.059-4.06 8.003-2.573.812.41 2.195 1.766 2.516 2.468l.194.423.949-.935.948-.935-.477-.69c-1.06-1.536-2.868-2.773-4.795-3.284-1.12-.297-3.092-.287-4.243.021Zm25.297-.013c-1.455.398-2.638 1.095-3.779 2.226-4.344 4.307-2.908 11.353 2.8 13.741 1.746.73 4.26.74 6.18.025 3.735-1.391 6.032-5.599 5.211-9.546-.633-3.045-3.131-5.654-6.167-6.441-1.162-.302-3.154-.304-4.245-.005Zm3.311 2.384a6.18 6.18 0 0 1 4.1 3.134c.424.802.464 1.028.464 2.6 0 1.466-.056 1.837-.378 2.488a6.11 6.11 0 0 1-2.798 2.796c-.998.489-1.24.54-2.586.54-1.308 0-1.602-.058-2.465-.48-1.247-.61-2.303-1.66-2.863-2.85-.38-.808-.44-1.147-.44-2.493 0-1.87.304-2.666 1.509-3.948 1.467-1.561 3.516-2.232 5.457-1.787Z" clip-rule="evenodd"/></svg>