<svg xmlns="http://www.w3.org/2000/svg" fill="none" viewBox="0 0 31 41"><path fill="currentColor" fill-rule="evenodd" d="M21.207.023c-.549.128-1.112.375-1.463.64a3.86 3.86 0 0 0-1.05 1.241 3.81 3.81 0 0 0-.443 1.656 3.735 3.735 0 0 0 2.522 3.69c1.271.428 2.669.072 3.631-.924.462-.477.744-.975.925-1.627.101-.365.112-1.488.017-1.877-.173-.715-.444-1.224-.916-1.72a3.244 3.244 0 0 0-1.028-.751c-.542-.263-.852-.335-1.5-.349-.306-.006-.619.003-.695.02ZM.097 7.99A.411.411 0 0 0 0 8.254c0 .129.025.16.434.562.69.677 1.182 1.152 2.515 2.429.687.658 1.398 1.34 1.58 1.517a824.288 824.288 0 0 0 2.59 2.491c.755.73 1.237 1.195 1.99 1.917l1.197 1.15c1.15 1.107 1.505 1.442 1.545 1.457.027.01.153-.363.196-.58.022-.11.088-.04-1.219-1.294-.444-.427-.9-.867-1.734-1.676l-.575-.556c-.031-.028-.404-.39-.83-.801a44.766 44.766 0 0 0-.804-.769c-.017-.01-.222-.207-.456-.436a207.2 207.2 0 0 0-1.207-1.164c-.43-.412-.984-.947-1.232-1.188-.248-.242-1.06-1.025-1.805-1.742A904.461 904.461 0 0 1 .623 8.068C.362 7.812.245 7.795.096 7.99Zm18.94.48a2.1 2.1 0 0 0-.806.454c-.145.124-.268.24-.275.258-.011.03-.474.533-1.192 1.293l-.627.663c-.173.183-.5.529-.729.769-1.211 1.274-1.63 1.76-1.738 2.02-.053.124-.509 1.94-.776 3.085l-.248 1.063c-.563 2.396-.597 2.597-.516 3.036.12.655.738 1.3 1.41 1.475.795.205 1.775-.18 2.087-.823.062-.128.196-.57.32-1.056.118-.46.276-1.06.35-1.333.075-.273.24-.9.365-1.394l.262-1.029c.025-.098.051-.13.105-.13.057 0 .068.015.053.078-.01.043-.036.745-.056 1.56-.02.814-.057 1.74-.08 2.056-.065.865-.05 1.524.04 1.865.114.43.378.93.692 1.31.15.18 1.696 1.745 3.436 3.478 1.74 1.732 3.165 3.166 3.165 3.185 0 .03-1.209 3.01-1.423 3.51-.075.175-.312.752-.6 1.465l-.492 1.202-.616 1.499-.626 1.516c-.527 1.268-.496 1.174-.433 1.306.046.097.078.118.213.138a.706.706 0 0 0 .237 0c.111-.034.234-.156.234-.233 0-.04.015-.056.04-.04.023.014.03.01.018-.011-.023-.038.495-1.359 1.172-2.99.064-.153.237-.577.384-.941l.556-1.36c.158-.383.408-.994.556-1.359l.711-1.742c.243-.595.463-1.14.488-1.212.025-.071.055-.13.065-.13.03 0 .204.347.264.523.03.086.093.36.141.61.048.249.32 1.527.603 2.84a858.744 858.744 0 0 1 .709 3.311l.127.593c.147.688.753 1.328 1.507 1.59.237.083.335.097.66.099.33 0 .416-.012.636-.092.858-.315 1.463-1.054 1.571-1.919.045-.358.017-.58-.16-1.299-.029-.115-.106-.46-.171-.767a365.215 365.215 0 0 0-.728-3.328c-.534-2.496-.959-4.362-1.022-4.486-.037-.073-.25-.336-.474-.585a1048.687 1048.687 0 0 1-1.284-1.43 8.136 8.136 0 0 0-.36-.386c-.067-.053-.049-.117.231-.798l.84-2.057c.483-1.188 1.194-2.928 1.356-3.32.031-.077-.01-.114-.052-.045-.02.032-.43.13-.621.15-.091.008-.111.038-.247.375l-.312.766-.489 1.203-.659 1.62c-.184.451-.39.965-.458 1.143-.068.178-.137.32-.152.314-.027-.01-.526-.558-1.275-1.403-.204-.23-.512-.575-.686-.767-.476-.526-.507-.61-.462-1.229.016-.225.069-1.045.117-1.822.05-.776.097-1.505.107-1.62.015-.18.204-3.015.382-5.734.03-.45.082-1.195.117-1.655.07-.918.059-1.14-.076-1.476-.243-.602-.824-1.137-1.362-1.253a6.152 6.152 0 0 0-.694-.058 27.68 27.68 0 0 1-.746-.038 49.418 49.418 0 0 0-2.17-.117 2.14 2.14 0 0 0-.434.047Zm6.058 3.584c-.008.024-.04.42-.07.88a183.536 183.536 0 0 1-.281 3.96c-.038.439.03.598.437 1.004.34.342 1.316 1.198 1.653 1.45 1.111.835 2.38.69 3.215-.367.32-.405.505-1 .466-1.503a2.513 2.513 0 0 0-.669-1.47c-.117-.123-.926-.832-1.577-1.383l-1.252-1.066c-1.524-1.297-1.827-1.548-1.869-1.548-.02 0-.045.02-.053.043ZM16.82 24.01a1.66 1.66 0 0 0-.055.2c-.014.067-.173.773-.354 1.569-.18.795-.366 1.627-.411 1.847l-.187.889a894.105 894.105 0 0 0-.922 4.374c-1.037 4.893-1.095 5.258-.94 5.872.225.884 1.015 1.553 2.003 1.695.246.035.33.033.564-.015.819-.169 1.544-.81 1.804-1.598.084-.252.149-.524.387-1.613a81.994 81.994 0 0 1 .341-1.5c.191-.838.3-1.31.4-1.743.058-.25.16-.697.226-.994.066-.297.198-.877.294-1.29a781.3 781.3 0 0 0 .37-1.602c.108-.47.251-1.081.318-1.359.142-.586.146-.855.018-1.12-.051-.105-.268-.35-.635-.714-.307-.305-.576-.57-.599-.59l-.248-.224a26.82 26.82 0 0 1-.452-.417c-1.05-.994-1.857-1.746-1.873-1.746-.011 0-.033.036-.05.079Z" clip-rule="evenodd"/></svg>