<svg xmlns="http://www.w3.org/2000/svg" fill="none" viewBox="0 0 43 36"><path fill="currentColor" fill-rule="evenodd" d="M32.764.07a1.21 1.21 0 0 0-.512.55c-.113.244-1.36 3.442-1.565 4.012-.126.352-.142.434-.12.645.033.307.177.618.376.815.085.084.314.228.509.319.313.146.388.165.661.166.356.002.493-.054.74-.306.16-.162.193-.235.696-1.524l.13-.334.244.121.244.122-.065.151c-.036.084-.14.334-.23.557a59.231 59.231 0 0 1-1.094 2.555l-.602 1.277c-.174.368-.604 1.308-.955 2.088-1.834 4.076-2.602 5.519-3.331 6.255-.509.514-.869.645-1.675.607-.872-.04-.993-.008-2.437.65-1.5.684-1.966.828-2.672.83-.653.001-.997-.11-2.382-.77-1.285-.611-1.551-.686-2.567-.725-1.007-.038-1.89.091-2.699.396-.87.328-1.26.658-2.523 2.127-.229.266-.688.767-1.02 1.113-.333.346-.875.924-1.205 1.286-.329.362-.602.654-.607.649-.005-.005-.03-.794-.055-1.753a102.297 102.297 0 0 0-.195-4.269l-.025-.336.447.011.448.012.02.973c.017.792.034 1.001.09 1.123.106.232.382.5.617.6.186.08.267.088.687.076.433-.013.492-.024.672-.128.244-.142.456-.425.54-.72.095-.334.096-4.784.001-5.098a1.345 1.345 0 0 0-.506-.677c-.172-.12-.193-.123-.71-.136-.508-.013-.545-.008-.755.093-.237.114-.38.258-.525.524-.084.156-.091.233-.11 1.22l-.021 1.055-.438.012-.438.011-.024-.356c-.069-.998-.21-1.426-.536-1.614-.35-.203-.869-.28-1.467-.22-1.07.11-1.887.57-2.125 1.194-.104.271-.207.71-.208.884v.112l-.401-.011-.4-.012-.021-1.054c-.02-.988-.026-1.065-.111-1.221-.145-.268-.302-.426-.524-.528-.18-.083-.27-.095-.69-.096-.327 0-.53.019-.625.058-.216.089-.495.368-.602.602l-.097.212-.012 2.385c-.013 2.653-.009 2.707.252 3.065.074.102.225.24.334.308.187.114.23.122.683.136.443.013.501.006.701-.085.264-.12.466-.313.583-.558.08-.166.09-.272.108-1.156l.02-.973.372-.012.372-.011.05.883c.076 1.314.124 2.526.17 4.29.088 3.265.26 4.81.685 6.123.378 1.17 1.094 1.92 1.961 2.053.644.099 1.938-.2 2.88-.664 1.03-.509 2.926-2.324 4.793-4.591l.546-.663.01 9.87.01 1.355H28.17V24.329l.127-.043c.698-.24 2.054-2.163 3.908-5.54 2.434-4.434 5.08-9.686 5.947-11.807l.135-.332.456.225c.25.123.46.229.466.234.011.01-.314.87-.515 1.36-.141.345-.148.777-.017 1.067.16.355.31.499.74.707.367.178.42.192.708.192.275 0 .335-.014.512-.122.11-.068.253-.195.316-.284.063-.09.494-1.133.956-2.32.836-2.144.841-2.16.841-2.473a1.22 1.22 0 0 0-.31-.858c-.133-.156-.826-.509-1.083-.552-.372-.062-.882.218-1.069.586-.04.079-.208.496-.373.926-.179.467-.32.777-.348.77a8.828 8.828 0 0 1-.488-.214c-.372-.171-.437-.216-.422-.284.01-.045.066-.264.125-.487.13-.493.175-1.046.112-1.378-.06-.316-.282-.775-.46-.95-.566-.56-1.597-.787-2.375-.524-.122.041-.3.12-.396.175-.221.128-.614.552-.795.858l-.205.344-.065.105-.27-.128-.271-.129.34-.869c.325-.827.341-.885.343-1.197.001-.285-.015-.36-.12-.57-.16-.313-.277-.42-.7-.629-.31-.153-.386-.174-.678-.185-.265-.01-.357.003-.478.068ZM21.25 5.08a4.996 4.996 0 0 0-2.81 1.338c-1.117 1.054-1.733 2.347-1.896 3.986-.127 1.272.236 2.81.917 3.881.749 1.179 1.908 2.055 3.173 2.398.382.104.466.112 1.211.113.706 0 .842-.01 1.145-.091 2.085-.558 3.58-2.21 4.076-4.508.123-.568.135-1.847.023-2.413-.293-1.481-1.037-2.759-2.097-3.604-.816-.65-1.67-1.007-2.675-1.119-.45-.05-.593-.047-1.067.018Z" clip-rule="evenodd"/></svg>