<svg xmlns="http://www.w3.org/2000/svg" fill="none" viewBox="0 0 37 39"><path fill="currentColor" fill-rule="evenodd" d="m.264 20.997.232.68 4.068-1.388 4.068-1.388 3.292 1.02c1.81.56 3.345 1.018 3.408 1.018.265 0 .265-.25-.003-1.244-.146-.54-.257-.987-.248-.993.066-.043 10.127-2.709 10.148-2.69.053.052 2.6 8.225 2.576 8.27-.014.025-2.39 1.354-5.282 2.954-3.715 2.056-5.347 3-5.566 3.22-.385.385-.572.749-.671 1.301-.15.836.113 1.623.745 2.234.376.364.402.374 7.743 3.236 2.795 1.09 3.137 1.194 3.667 1.117a2.556 2.556 0 0 0 2.164-2.266c.081-.81-.376-1.79-1.037-2.226-.188-.124-1.14-.538-2.115-.92-.975-.382-1.773-.715-1.773-.74 0-.024 1.91-.784 4.247-1.689 2.337-.905 4.46-1.741 4.718-1.859.808-.367 1.38-1.123 1.49-1.97.05-.38-2.04-14.988-2.25-15.717-.175-.613-.635-1.137-1.269-1.447-.935-.457-.532-.538-10.053 2.024a5151.923 5151.923 0 0 1-8.617 2.314c-.19.047-.203.025-.386-.68-.205-.79-.274-.924-.473-.924-.072 0-1.207 1.177-2.523 2.614L8.17 17.471 4.13 18.846C1.905 19.6.074 20.242.059 20.268c-.014.027.078.355.205.73Zm10.949-5.337c.79-.865 1.46-1.583 1.49-1.596.03-.013.078.084.108.216.042.191.005.314-.18.596-.806 1.223-.325 2.922 1.018 3.6.32.161.367.221.461.583.058.222.087.421.065.444-.03.03-4.11-1.19-4.993-1.492-.08-.027-.011-.144.241-.409.194-.204 1-1.078 1.79-1.942ZM22.348 5.55c.166.87.645 1.768 1.287 2.412a4.644 4.644 0 0 0 6.598-.003c.902-.908 1.352-2.02 1.35-3.333C31.58 2.626 30.315.9 28.368.238c-.525-.179-.756-.212-1.448-.21-.692.002-.922.037-1.447.218-2.242.777-3.562 3.017-3.125 5.305Z" clip-rule="evenodd"/></svg>